<svg xmlns="http://www.w3.org/2000/svg" width="106" height="60" fill="none"><path fill="#AFB1B8" d="M36.406 49.101c.016 0 .032.004.046.01a.122.122 0 0 1 .039.024l.218.208c-.17.169-.379.304-.614.396a2.39 2.39 0 0 1-.87.142c-.28.005-.558-.04-.817-.133a1.794 1.794 0 0 1-.616-.374 1.674 1.674 0 0 1-.398-.578 1.926 1.926 0 0 1-.14-.742 1.725 1.725 0 0 1 .572-1.322c.187-.163.41-.291.655-.377.269-.09.555-.135.843-.132a2.27 2.27 0 0 1 .782.12c.216.082.415.195.587.335l-.183.222a.177.177 0 0 1-.046.04.125.125 0 0 1-.074.017.177.177 0 0 1-.08-.023l-.097-.06-.137-.076a1.555 1.555 0 0 0-.43-.132 1.892 1.892 0 0 0-.325-.024 1.759 1.759 0 0 0-.605.1c-.18.063-.341.158-.474.28-.136.128-.241.28-.309.445a1.497 1.497 0 0 0-.111.587c-.004.203.034.405.111.597a1.3 1.3 0 0 0 .303.443c.125.12.28.215.453.275.178.064.369.096.561.095.111.001.223-.005.333-.019a1.316 1.316 0 0 0 .72-.306.171.171 0 0 1 .103-.038ZM42.704 48.054c.004.251-.046.5-.147.737a1.594 1.594 0 0 1-.41.572 1.888 1.888 0 0 1-.645.375 2.655 2.655 0 0 1-1.658 0 1.913 1.913 0 0 1-.64-.377 1.679 1.679 0 0 1-.415-.578 1.922 1.922 0 0 1 0-1.475c.093-.216.234-.413.415-.58.182-.159.4-.282.64-.363a2.61 2.61 0 0 1 1.658 0c.242.085.461.213.643.376.18.165.32.36.412.571.101.238.151.489.147.742Zm-.572 0a1.564 1.564 0 0 0-.104-.593 1.22 1.22 0 0 0-.752-.722 1.918 1.918 0 0 0-1.205 0 1.295 1.295 0 0 0-.461.28 1.191 1.191 0 0 0-.295.443 1.738 1.738 0 0 0 0 1.184 1.21 1.21 0 0 0 .756.72c.388.127.816.127 1.205 0 .175-.061.332-.156.46-.277.131-.129.23-.28.292-.443.073-.19.108-.391.104-.592ZM47.001 48.675l.058.132c.021-.047.04-.09.062-.132.021-.045.045-.088.071-.13l1.393-2.201c.028-.038.052-.062.08-.069a.373.373 0 0 1 .114-.012h.412v3.58h-.488V47.1a.974.974 0 0 1 0-.124L47.3 49.208a.203.203 0 0 1-.082.081.246.246 0 0 1-.12.03h-.079a.243.243 0 0 1-.12-.03.201.201 0 0 1-.081-.081l-1.443-2.246V49.835h-.471v-3.572h.411a.374.374 0 0 1 .115.012c.034.015.06.039.076.069l1.423 2.203c.028.04.052.083.071.128ZM52.244 48.497v1.34H51.7v-3.574h1.216c.23-.004.459.023.679.078.176.044.34.12.48.223a.92.92 0 0 1 .272.35c.065.146.096.302.093.458a.993.993 0 0 1-.395.815c-.14.107-.304.188-.483.236a2.3 2.3 0 0 1-.657.083l-.66-.01Zm0-.384h.66c.143.002.286-.017.423-.054a.924.924 0 0 0 .305-.154.686.686 0 0 0 .25-.538.604.604 0 0 0-.054-.291.688.688 0 0 0-.19-.244 1.172 1.172 0 0 0-.734-.192h-.66v1.473ZM59.573 49.842h-.43a.205.205 0 0 1-.12-.033.224.224 0 0 1-.072-.083l-.37-.864h-1.863l-.384.864a.196.196 0 0 1-.068.08.205.205 0 0 1-.123.036h-.43l1.635-3.58h.567l1.658 3.58Zm-2.7-1.329h1.539l-.65-1.457c-.049-.11-.09-.222-.122-.336l-.063.187a1.69 1.69 0 0 1-.06.152l-.643 1.454ZM61.929 46.28c.032.015.06.037.082.063l2.385 2.699v-2.779h.488v3.58h-.272a.265.265 0 0 1-.112-.022.298.298 0 0 1-.087-.066l-2.383-2.696a.974.974 0 0 1 0 .123v2.66h-.488v-3.58h.289c.033 0 .067.006.098.017ZM68.903 48.419v1.421h-.545V48.42l-1.508-2.156h.488a.196.196 0 0 1 .117.03c.03.024.055.051.074.081l.943 1.391a1.438 1.438 0 0 1 .166.317l.072-.154c.026-.056.057-.11.092-.163l.93-1.4a.379.379 0 0 1 .07-.076.183.183 0 0 1 .118-.035h.494l-1.51 2.165ZM46.731 40.256c.238.026.477.047.72.066 3.679-1.43 6.791-3.77 8.948-6.728 2.156-2.958 3.261-6.403 3.177-9.904l-4.054-3.522c.824 3.727.438 7.58-1.114 11.128-1.553 3.548-4.21 6.65-7.677 8.96Z"/><path fill="#AFB1B8" d="m45.284 40.092.109.02c3.704-2.303 6.527-5.517 8.106-9.228 1.579-3.711 1.84-7.749.75-11.59l-5.775-5.017c2.335 4.124 3.276 8.74 2.71 13.31-.564 4.57-2.61 8.906-5.9 12.505ZM64.868 27.826c-.981 3.847-3.364 7.316-6.794 9.893a21.633 21.633 0 0 1-3.229 2.013c2.794-.713 5.361-1.974 7.505-3.686s3.807-3.829 4.86-6.187l-2.342-2.033Z"/><path fill="#AFB1B8" d="m63.95 27.26-3.335-2.897c-.064 3.303-1.145 6.531-3.13 9.348-1.986 2.818-4.804 5.122-8.16 6.673h.016c.748 0 1.495-.04 2.238-.116 3.138-1.113 5.909-2.883 8.068-5.153 2.158-2.27 3.636-4.968 4.302-7.855ZM45.766 12.16 41.788 8.7c-3.556 1.194-6.614 3.293-8.775 6.022-2.16 2.73-3.322 5.961-3.333 9.274.013 3.66 1.431 7.212 4.03 10.093 2.597 2.88 6.227 4.927 10.314 5.814 3.648-3.862 5.785-8.634 6.098-13.623.313-4.99-1.213-9.935-4.356-14.12ZM73.14 26.727c-.014-4.342-2.006-8.503-5.54-11.574-3.534-3.07-8.324-4.801-13.322-4.814-2.31-.002-4.6.369-6.753 1.092L71.88 32.593a14.35 14.35 0 0 0 1.26-5.866Z"/></svg>